<?xml version="1.0" standalone="no"?>
<!DOCTYPE svg PUBLIC "-//W3C//DTD SVG 20010904//EN"
 "http://www.w3.org/TR/2001/REC-SVG-20010904/DTD/svg10.dtd">
<svg version="1.0" xmlns="http://www.w3.org/2000/svg"
 width="700.000000pt" height="700.000000pt" viewBox="0 0 700.000000 700.000000"
 preserveAspectRatio="xMidYMid meet">
<metadata>
Created by potrace 1.11, written by Peter Selinger 2001-2013
</metadata>
<g transform="translate(0.000000,700.000000) scale(0.100000,-0.100000)"
fill="#000000" stroke="none">
<path d="M3968 5013 c-3 -4 -4 -1126 -4 -2493 l1 -2485 1513 -3 c1027 -1 1512
1 1512 8 0 6 -11 27 -24 48 -28 44 -271 443 -296 487 -10 17 -113 188 -230
380 -117 193 -258 424 -313 515 -55 91 -110 181 -122 200 -12 19 -37 60 -55
90 -80 134 -436 720 -525 865 -54 88 -107 176 -119 196 -12 20 -68 114 -126
208 -58 94 -110 179 -115 189 -27 46 -121 201 -195 322 -46 74 -89 146 -97
160 -8 14 -22 37 -31 52 -46 75 -710 1166 -727 1196 -11 19 -25 43 -31 54 -7
11 -14 16 -16 11z"/>
<path d="M3769 2808 c-46 -35 -141 -104 -209 -155 -69 -50 -192 -141 -275
-202 -82 -61 -161 -119 -174 -128 -251 -184 -389 -286 -401 -296 -13 -11 -150
-111 -845 -622 -219 -161 -918 -675 -1080 -795 -71 -53 -197 -146 -279 -206
-183 -134 -305 -224 -415 -306 l-84 -63 1914 -3 c1053 -1 1919 0 1925 2 9 3
12 378 12 1420 -1 779 -1 1416 -2 1416 -1 0 -40 -28 -87 -62z"/>
</g>
</svg>
