<svg xmlns="http://www.w3.org/2000/svg" width="30" height="30" viewBox="0 0 800 800" shape-rendering="geometricPrecision" text-rendering="geometricPrecision" image-rendering="optimizeQuality" fill-rule="evenodd" clip-rule="evenodd"><defs><style type="text/css"><![CDATA[
    .fil0 {fill:#373435}
   ]]></style></defs><path class="fil0" d="M0 0h800v800h-800v-800zm518 330c8 1 32 18 49 44 10 17 19 37 19 59v5h-73v-108h5zm53 173c-11-9-24-14-39-14s-29 5-40 14-19 21-22 35l-1 4h-90l-1-4c-4-19-15-33-29-41-10-5-21-8-32-8-12 0-23 3-33 8-14 8-25 22-29 41l-1 4h-3c-39-1-39-5-38-52v-26h4c45 0 83 1 115 1 72 2 109 3 128-9 20-13 20-43 19-107v-54h68c9 0 31 26 50 54 20 30 38 63 38 74v50c1 55 2 66-25 68v1h-16l-1-4c-3-14-11-26-22-35zm-5 103c12-8 21-19 26-35l1-3h3c58 0 66-25 66-76v-32c-1-15-1-30-1-46s-24-50-39-71c-4-5-6-9-9-12-4-8-8-14-12-20-14-21-21-32-32-37s-29-5-65-5h-25v-4c0-16 0-33-5-48-4-14-11-26-26-32h-248c-16 0-32 2-44 8-11 7-18 18-18 37v188c0 14 4 25 12 33 7 8 19 13 33 13h4v23c-1 52-1 81 65 81h3l1 3c5 16 15 27 26 35 11 6 23 9 35 9 11 0 23-3 34-9 11-8 21-19 26-35l1-3h92l1 3c5 16 15 27 27 35 10 6 22 9 34 9s24-3 34-9zm-34-92c18 0 29 10 34 23 2 4 3 10 3 15s-1 10-3 15c-5 13-16 23-34 23s-30-10-35-23c-2-5-3-10-3-15s1-11 3-15c5-13 17-23 35-23zm-215 0c4 0 9 1 13 3 7 2 13 7 18 14 4 6 6 14 6 21 0 4 0 9-2 13l-1 3c-7 15-18 22-31 22-6 0-12-1-17-3-6-3-11-6-15-11-9-10-13-25-5-40 3-7 8-12 14-16 5-4 12-6 20-6zm-153-284c0-7 1-11 4-14 3-4 8-5 15-5h264l1 3c8 36 6 106 5 160v44c0 7-2 12-5 15s-7 5-14 5h-251c-7 0-12-2-15-5s-4-8-4-15v-188zm338 104c0 20-1 38-1 52-1 33-1 50 4 57 5 8 18 7 44 7 9-1 20-1 32-1 9 0 13-4 15-10 2-5 2-12 0-20-1-8-4-17-8-26-16-36-47-74-71-74-4 0-8 1-11 4s-4 7-4 11z" id="Layer_x0020_1"/></svg>