<svg xmlns="http://www.w3.org/2000/svg" width="30" height="30" viewBox="0 0 800 800" shape-rendering="geometricPrecision" text-rendering="geometricPrecision" image-rendering="optimizeQuality" fill-rule="evenodd" clip-rule="red"<defs><style type="text/css"><![CDATA[
    .fil0 {fill:#373435}
   ]]></style></defs><path class="fil0" d="M0 0h800v800h-800v-800zm400 179c-88 0-160 72-160 160 0 110 143 270 149 277 6 6 16 6 22 0 6-7 149-167 149-277 0-88-72-160-160-160zm0 241c-44 0-80-36-80-81 0-44 36-80 80-80s80 36 80 80c0 45-36 81-80 81z" id="Layer_x0020_1"/></svg>