<svg xmlns="http://www.w3.org/2000/svg" width="30" height="30" viewBox="0 0 800 800" shape-rendering="geometricPrecision" text-rendering="geometricPrecision" image-rendering="optimizeQuality" fill-rule="evenodd" clip-rule="evenodd"><defs><style type="text/css"><![CDATA[
    .fil0 {fill:#373435}
   ]]></style></defs><path class="fil0" d="M0 0h800v800h-800v-800zm561 361c0-31-13-61-35-84s-52-40-85-44h-4c-8-2-18-3-20 5-3 7 2 10 7 12 3 1 7 2 11 3h3c33 8 56 18 72 35 17 17 25 40 31 73 0 2 0 4 1 6v6c1 5 3 10 12 9 7-1 7-10 7-15v-6zm-123-67c-6 1-11 3-13 7-1 1-2 2-2 3 0 2 0 3 1 4 1 3 5 5 11 6 14 2 25 7 33 16 7 8 12 19 13 34 1 4 2 7 4 9 2 1 4 2 7 2 3-1 5-2 6-4h1c1-3 2-7 2-12v-1c0-7-2-14-5-22-4-7-9-15-16-21-6-7-14-12-21-16-7-3-13-5-20-5h-1zm145 221l-6-5c-11-8-23-17-35-25-1-1-10-7-10-7-14-9-27-13-38-12s-22 8-31 22l-2 2c-6 9-14 14-23 16-8 1-16 0-25-5-26-11-48-26-66-43-18-18-32-39-43-62-6-13-7-24-5-34s8-18 18-25l2-1c8-5 22-16 21-33-1-11-15-36-32-59s-36-44-46-48c-4-1-9-2-13-2s-9 1-13 2l-8 3c-22 9-38 23-45 40-8 17-9 37-2 59l3 6c30 75 72 138 124 191 54 54 118 96 194 129 6 2 10 3 15 4 2 1 5 2 6 2h1c16 0 34-7 49-19s28-28 34-44c5-13 3-23-2-30-5-8-13-15-21-21l-1-1zm-142-323c51 9 88 27 115 56 26 29 41 69 48 122v7c0 6 1 17 10 17 2 0 4 0 5-1 1 0 2-1 2-1v-1c3-3 3-9 3-14l-1-6c1-49-19-95-50-131-32-37-77-62-125-68l-1-1h-1l-13-1c-12-1-24 1-24 11-1 7 12 9 22 10 4 0 7 0 10 1z" id="Layer_x0020_1"/></svg>