<svg xmlns="http://www.w3.org/2000/svg" width="30" height="30" viewBox="0 0 1001 1008" shape-rendering="geometricPrecision" text-rendering="geometricPrecision" image-rendering="optimizeQuality" fill-rule="evenodd" clip-rule="evenodd"><defs><style type="text/css"><![CDATA[
    .fil0 {fill:#373435}
   ]]></style></defs><path id="Layer_x0020_1_0" class="fil0" d="M884 699c-42-30-98-76-150-71-26 2-51 19-72 51l-5 5c-14 21-32 32-53 37-19 2-37 0-58-12-60-25-111-60-153-100-42-41-74-90-99-143-14-30-17-56-12-79s18-42 42-58l4-2c95-59 23-148-25-213-52-70-92-140-186-105-51 21-88 54-104 93-76 162 201 502 290 593 101 101 345 281 484 308 5 3 12 5 14 5 39 0 80-15 116-44 35-28 65-65 79-102 29-76-60-126-112-163z"/></svg>