<svg width="50" height="50" viewBox="0 0 50 50" fill="none" xmlns="http://www.w3.org/2000/svg">
<path d="M29.3478 33.543C29.3478 33.543 32.722 31.6114 33.6053 31.1472C34.4862 30.6814 35.3987 30.5639 35.9528 30.9022C36.792 31.4156 43.8386 36.103 44.432 36.518C45.0253 36.9339 45.3111 38.1214 44.4953 39.2847C43.6828 40.448 39.9345 45.048 38.3462 44.9988C36.7553 44.9472 30.1412 44.8022 17.6687 32.3264C5.19875 19.8548 5.05125 13.2389 5.00042 11.6481C4.94958 10.0581 9.54957 6.30896 10.7129 5.49563C11.8779 4.68314 13.0671 4.98897 13.4804 5.56063C13.9504 6.21146 18.5837 13.2356 19.0937 14.0406C19.4429 14.5906 19.3145 15.5081 18.8487 16.3898C18.3854 17.2731 16.4537 20.6473 16.4537 20.6473C16.4537 20.6473 17.8154 22.9697 22.4204 27.5739C27.0262 32.1789 29.3478 33.543 29.3478 33.543Z" stroke="black" stroke-width="2" stroke-miterlimit="10"/>
</svg>
